<svg enable-background="new 0 0 144 144" id="Layer_1" version="1.1" viewBox="0 0 144 144" xml:space="preserve" xmlns="http://www.w3.org/2000/svg" xmlns:xlink="http://www.w3.org/1999/xlink"><g><path d="M27.374,110.221   c-0.877-1.05-1.424-2.398-1.424-3.873V58.876c0-3.341,2.709-6.05,6.05-6.05h62.304" fill="none" stroke="#3D6CB4" stroke-linecap="round" stroke-linejoin="round" stroke-miterlimit="10"/><path d="M32.001,112.399" fill="none" stroke="#3D6CB4" stroke-linecap="round" stroke-linejoin="round" stroke-miterlimit="10"/><path d="M118.929,76.419   v29.93c0,1.481-0.518,2.821-1.402,3.873" fill="none" stroke="#3D6CB4" stroke-linecap="round" stroke-linejoin="round" stroke-miterlimit="10"/><path d="M115.38,76.419   v24.109c0,3.341-2.709,6.05-6.05,6.05H35.55c-3.341,0-6.05-2.709-6.05-6.05V61.989c0-3.341,2.709-6.05,6.05-6.05h59.351" fill="none" stroke="#3D6CB4" stroke-linecap="round" stroke-linejoin="round" stroke-miterlimit="10"/><path d="M125.78,110.221   H19.099c-1.567,0-2.838,1.271-2.838,2.838v0c0,1.567,1.271,2.838,2.838,2.838H125.78c1.567,0,2.838-1.271,2.838-2.838v0   C128.618,111.492,127.347,110.221,125.78,110.221z" fill="none" stroke="#3D6CB4" stroke-linecap="round" stroke-linejoin="round" stroke-miterlimit="10"/><path d="M89.825,113.059h-34.77c-0.78,0-1.419-0.639-1.419-1.419l0,0c0-0.78,0.639-1.419,1.419-1.419   h34.77c0.78,0,1.419,0.639,1.419,1.419l0,0C91.244,112.42,90.605,113.059,89.825,113.059z" fill="#528AC8" opacity="0.3"/><path d="M89.825,113.059   h-34.77c-0.78,0-1.419-0.639-1.419-1.419l0,0c0-0.78,0.639-1.419,1.419-1.419h34.77c0.78,0,1.419,0.639,1.419,1.419l0,0   C91.244,112.42,90.605,113.059,89.825,113.059z" fill="none" stroke="#3D6CB4" stroke-linecap="round" stroke-linejoin="round" stroke-miterlimit="10"/><line fill="none" stroke="#3D6CB4" stroke-linecap="round" stroke-linejoin="round" stroke-miterlimit="10" x1="38.36" x2="70.36" y1="66.555" y2="66.555"/><line fill="none" stroke="#3D6CB4" stroke-linecap="round" stroke-linejoin="round" stroke-miterlimit="10" x1="38.36" x2="87.36" y1="82.555" y2="82.555"/><line fill="none" stroke="#3D6CB4" stroke-linecap="round" stroke-linejoin="round" stroke-miterlimit="10" x1="38.36" x2="75.36" y1="74.555" y2="74.555"/><path d="M138.894,51.196l-4.247,22.191c0,1.592-1.129,2.883-2.523,2.883h-31.361   c-1.393,0-2.523-1.291-2.523-2.883l-4.247-22.191" fill="#528AC8" opacity="0.3"/><path d="M138.894,51.196   l-4.247,22.191c0,1.592-1.129,2.883-2.523,2.883h-31.361c-1.393,0-2.523-1.291-2.523-2.883l-4.247-22.191" fill="none" stroke="#3D6CB4" stroke-linecap="round" stroke-linejoin="round" stroke-miterlimit="10"/><path d="M132.147,46.207   h7.81c1.367,0,2.486,1.118,2.486,2.485v0c0,1.367-1.118,2.485-2.486,2.485H92.969c-1.367,0-2.485-1.118-2.485-2.485v0   c0-1.367,1.118-2.485,2.485-2.485h8.536" fill="none" stroke="#3D6CB4" stroke-linecap="round" stroke-linejoin="round" stroke-miterlimit="10"/><line fill="none" stroke="#3D6CB4" stroke-linecap="round" stroke-linejoin="round" stroke-miterlimit="10" x1="105.721" x2="127.931" y1="46.207" y2="46.207"/><g><path d="M129.118,48.262l-8.904-15.422c-0.502-0.869-0.201-1.992,0.668-2.494v0    c0.869-0.502,1.992-0.201,2.494,0.668l8.904,15.422c0.502,0.869,0.201,1.992-0.668,2.494l0,0    C130.742,49.432,129.62,49.132,129.118,48.262z" fill="#528AC8" opacity="0.3"/><path d="M129.118,48.262    l-8.904-15.422c-0.502-0.869-0.201-1.992,0.668-2.494v0c0.869-0.502,1.992-0.201,2.494,0.668l8.904,15.422    c0.502,0.869,0.201,1.992-0.668,2.494l0,0C130.742,49.432,129.62,49.132,129.118,48.262z" fill="none" stroke="#3D6CB4" stroke-linecap="round" stroke-linejoin="round" stroke-miterlimit="10"/></g><g><path d="M104.534,48.262l8.904-15.422c0.502-0.869,0.201-1.992-0.668-2.494v0    c-0.869-0.502-1.992-0.201-2.494,0.668l-8.904,15.422c-0.502,0.869-0.201,1.992,0.668,2.494h0    C102.91,49.432,104.032,49.132,104.534,48.262z" fill="#528AC8" opacity="0.3"/><path d="M104.534,48.262    l8.904-15.422c0.502-0.869,0.201-1.992-0.668-2.494v0c-0.869-0.502-1.992-0.201-2.494,0.668l-8.904,15.422    c-0.502,0.869-0.201,1.992,0.668,2.494h0C102.91,49.432,104.032,49.132,104.534,48.262z" fill="none" stroke="#3D6CB4" stroke-linecap="round" stroke-linejoin="round" stroke-miterlimit="10"/></g><line fill="none" stroke="#3D6CB4" stroke-linecap="round" stroke-linejoin="round" stroke-miterlimit="10" x1="105.397" x2="107.349" y1="57.451" y2="69.76"/><line fill="none" stroke="#3D6CB4" stroke-linecap="round" stroke-linejoin="round" stroke-miterlimit="10" x1="128.18" x2="126.227" y1="57.451" y2="69.76"/><line fill="none" stroke="#3D6CB4" stroke-linecap="round" stroke-linejoin="round" stroke-miterlimit="10" x1="116.86" x2="116.86" y1="58.055" y2="70.055"/><g><line fill="none" stroke="#3D6CB4" stroke-linecap="round" stroke-linejoin="round" stroke-miterlimit="10" x1="6.766" x2="6.766" y1="44.254" y2="53.13"/><line fill="none" stroke="#3D6CB4" stroke-linecap="round" stroke-linejoin="round" stroke-miterlimit="10" x1="11.204" x2="2.328" y1="48.692" y2="48.692"/></g><g><line fill="none" stroke="#3D6CB4" stroke-linecap="round" stroke-linejoin="round" stroke-miterlimit="10" x1="13.236" x2="13.236" y1="71.516" y2="76.83"/><line fill="none" stroke="#3D6CB4" stroke-linecap="round" stroke-linejoin="round" stroke-miterlimit="10" x1="15.893" x2="10.579" y1="74.173" y2="74.173"/></g><g><line fill="none" stroke="#3D6CB4" stroke-linecap="round" stroke-linejoin="round" stroke-miterlimit="10" x1="91.825" x2="91.825" y1="31.749" y2="37.062"/><line fill="none" stroke="#3D6CB4" stroke-linecap="round" stroke-linejoin="round" stroke-miterlimit="10" x1="94.482" x2="89.168" y1="34.405" y2="34.405"/></g><path d="M104.167,99.27H40.712c-1.329,0-2.417-1.088-2.417-2.417v-4.32   c0-1.329,1.087-2.417,2.417-2.417h63.455c1.329,0,2.417,1.088,2.417,2.417v4.32C106.584,98.183,105.497,99.27,104.167,99.27z" fill="#528AC8" opacity="0.3"/><path d="M138.894,51.196" fill="none" stroke="#3D6CB4" stroke-linecap="round" stroke-linejoin="round" stroke-miterlimit="10"/></g><g/><g/><g/><g/><g/><g/></svg>