<svg width="16" height="13" viewBox="0 0 16 13" fill="none" xmlns="http://www.w3.org/2000/svg">
<path d="M6.633 0.946289C3.718 1.90029 0.75 4.17929 0.75 7.67729C0.75 10.6983 2.605 12.3943 4.513 12.3943C6.209 12.3943 7.004 11.2813 7.004 10.1683C7.004 9.37329 6.633 8.79029 6.209 8.68429C4.566 8.31329 3.082 7.73029 3.082 6.08729C3.082 4.39129 4.354 2.96029 6.898 1.68829L6.633 0.946289ZM14.689 0.946289C11.774 1.90029 8.806 4.17929 8.806 7.67729C8.806 10.6983 10.661 12.3943 12.516 12.3943C14.212 12.3943 15.007 11.2813 15.007 10.1683C15.007 9.37329 14.689 8.79029 14.212 8.68429C12.569 8.31329 11.138 7.73029 11.138 6.08729C11.138 4.39129 12.357 2.96029 14.954 1.68829L14.689 0.946289Z" fill="#06429E"/>
</svg>
