<svg fill="none" height="19" viewBox="0 0 20 19" width="20" xmlns="http://www.w3.org/2000/svg" xmlns:xlink="http://www.w3.org/1999/xlink"><linearGradient id="a" gradientUnits="userSpaceOnUse" x1="9.64698" x2="9.67736" y1="-.147434" y2="17.9046"><stop offset="0" stop-color="#ffd43b"/><stop offset="1" stop-color="#f9a825"/></linearGradient><linearGradient id="b" gradientUnits="userSpaceOnUse" x1="14.5406" x2="19.3159" y1="9.68476" y2="9.68476"><stop offset="0" stop-color="#f9a114"/><stop offset="1" stop-color="#fcbf31"/></linearGradient><linearGradient id="c" gradientUnits="userSpaceOnUse" x1=".000053" x2="4.7754" y1="9.66743" y2="9.66743"><stop offset="0" stop-color="#fcbf31"/><stop offset="1" stop-color="#f9a114"/></linearGradient><path d="m9.57307 15.8924-5.68206 3.0863c-.13501.0741-.29502-.0448-.26835-.2015l1.08508-6.5377c.01-.062-.01-.1257-.05334-.1688l-4.5969846-4.63115c-.1100076-.11023-.05000344-.30312.1033406-.32551l6.352104-.95413c.06001-.00862.11168-.04823.14001-.10506l2.8402-5.946978c.06834-.1412253.26335-.1412253.33169 0l2.84184 5.948698c.0267.05683.0784.09472.14.10506l6.3521.95413c.1517.02239.2117.21528.1034.32551l-4.5987 4.62943c-.0433.0431-.0633.1068-.0533.1688l1.0851 6.5377c.0266.1567-.1334.2756-.2684.2015l-5.68205-3.0863c-.05334-.0293-.11834-.0293-.17168 0z" fill="url(#a)"/><path d="m15.426 18.9777-5.68035-3.0863c-.05501-.0293-.11835-.0293-.17335 0l-5.68206 3.0863c-.13501.074-.29335-.0448-.26835-.1998l.03834-.2325 5.99708-3.2585 5.99709 3.2585.0383.2325c.0284.155-.1317.2738-.2667.1998z" fill="#f9a111"/><path d="m19.2596 7.45749-4.597 4.62771c-.045.0448-.0633.1068-.0533.1705l-.0633-.3772c-.02-.124.0183-.2514.1066-.3392l4.3937-4.42626.1116.01722c.15.02411.2117.217.1017.32723z" fill="url(#b)"/><path d="m.0550564 7.44016 4.5986536 4.62774c.045.0448.06333.1068.05333.1705l.06334-.3772c.02-.124-.01833-.2514-.10667-.3393l-4.393639-4.4262-.111674.01723c-.15167729.02411-.2116814.217-.1033406.32723z" fill="url(#c)"/></svg>